<?xml version="1.0" standalone="no"?>
<!DOCTYPE svg PUBLIC "-//W3C//DTD SVG 20010904//EN"
 "http://www.w3.org/TR/2001/REC-SVG-20010904/DTD/svg10.dtd">
<svg version="1.0" xmlns="http://www.w3.org/2000/svg"
 width="422.000000pt" height="862.000000pt" viewBox="0 0 422.000000 862.000000"
 preserveAspectRatio="xMidYMid meet">

<g transform="translate(0.000000,862.000000) scale(0.100000,-0.100000)"
fill="#000000" stroke="none">
<path d="M2070 8232 c-19 -9 -45 -32 -57 -51 l-23 -34 0 -1222 0 -1222 -111
-109 c-352 -345 -389 -398 -700 -989 -225 -425 -286 -567 -388 -900 -102 -333
-125 -486 -118 -774 7 -296 56 -555 163 -862 141 -406 286 -640 621 -1001 147
-159 499 -502 547 -533 40 -27 206 -31 252 -7 80 42 606 574 768 777 232 291
392 628 495 1045 113 455 115 807 6 1203 -110 404 -186 586 -468 1122 -254
484 -326 588 -594 850 l-183 180 -3 1232 -2 1231 -25 27 c-49 54 -119 68 -180
37z m231 -2924 c218 -215 286 -315 526 -773 245 -467 297 -586 398 -910 88
-283 122 -492 112 -699 -14 -295 -87 -615 -204 -901 -129 -313 -242 -482 -530
-790 -147 -158 -446 -448 -467 -453 -16 -4 -480 458 -600 598 -125 146 -204
257 -277 390 -218 394 -356 980 -320 1354 15 155 41 278 103 481 96 318 157
463 350 830 221 420 307 566 397 679 71 89 330 346 348 346 5 0 79 -69 164
-152z"/>
<path d="M2073 5044 c-18 -9 -42 -31 -52 -48 -19 -30 -20 -75 -24 -1804 l-6
-1773 31 -34 c71 -82 202 -64 249 33 16 32 20 53 15 82 -3 22 -6 804 -7 1739
l0 1699 -22 43 c-37 71 -114 97 -184 63z"/>
<path d="M1740 4439 c-14 -5 -59 -43 -100 -83 -41 -40 -133 -128 -204 -197
-147 -141 -186 -195 -186 -251 0 -92 86 -158 166 -128 16 6 94 75 174 153 80
78 172 167 204 197 107 99 139 177 102 249 -27 52 -104 82 -156 60z"/>
<path d="M2455 4443 c-57 -15 -95 -66 -95 -131 0 -48 39 -111 110 -177 30 -28
122 -116 205 -198 162 -158 189 -175 255 -157 70 19 109 89 89 164 -8 35 -44
74 -232 260 -122 120 -236 225 -254 232 -33 14 -44 15 -78 7z"/>
<path d="M1662 3500 c-22 -16 -66 -63 -97 -105 -31 -42 -62 -78 -70 -82 -21
-8 -209 -216 -258 -286 -130 -183 -141 -212 -110 -275 22 -45 75 -82 118 -82
52 0 94 38 185 164 49 70 133 168 200 235 64 64 129 134 145 156 16 22 44 56
63 77 62 66 54 169 -18 211 -45 27 -110 22 -158 -13z"/>
<path d="M2435 3498 c-62 -57 -60 -130 3 -201 21 -23 49 -58 64 -77 14 -19 80
-90 146 -157 67 -69 156 -174 202 -238 89 -126 110 -144 167 -151 71 -9 143
56 143 129 0 31 -37 110 -72 153 -13 16 -45 58 -70 94 -25 36 -99 119 -163
185 -64 66 -128 136 -143 155 -42 57 -95 111 -124 126 -15 8 -48 14 -73 14
-37 0 -51 -6 -80 -32z"/>
<path d="M1692 2452 c-23 -15 -68 -64 -101 -108 -32 -45 -64 -85 -70 -88 -6
-4 -30 -37 -55 -74 -24 -37 -60 -83 -81 -102 -47 -44 -65 -79 -65 -125 0 -67
39 -114 108 -130 69 -15 185 73 254 192 12 21 45 66 73 99 27 34 69 85 92 113
58 72 70 111 48 166 -32 84 -124 110 -203 57z"/>
<path d="M2444 2470 c-11 -4 -33 -22 -47 -40 -21 -25 -27 -42 -27 -80 0 -51
19 -81 148 -234 24 -28 53 -69 64 -90 33 -65 156 -183 204 -195 74 -20 145 18
164 89 15 54 -1 93 -70 168 -34 37 -69 81 -77 97 -9 17 -37 55 -63 85 -26 30
-64 79 -85 108 -59 84 -142 120 -211 92z"/>
</g>
</svg>
